# xmcd
# Copyright (C) 1995-1998 Ti Kan
#
# Track frame offsets:
#       150
#       15564
#       32188
#       43935
#       59336
#       76570
#       96384
#       111512
#       126587
#       141553
#       162589
#       178278
#       190149
#
# Disc length: 2763 seconds
#
# Revision: 2
# Processed by: cddbd v1.5.2PL0 Copyright (c) Steve Scherf et al.
# Submitted via: CD-Transfer v1.0
#
DISCID=c30ac90d
DTITLE=J.d. Roth - Invitation - The Final One
DYEAR=2006
DGENRE=
TTITLE0=Alright
TTITLE1=Mind The Gap
TTITLE2=Fragile
TTITLE3=Laugh In The Winter
TTITLE4=Until That Day
TTITLE5=Spring
TTITLE6=Ciel En Bleu
TTITLE7=Invitation
TTITLE8=Easily
TTITLE9=On My Way
TTITLE10=Gimme Sweets
TTITLE11=Dimanche Matin
TTITLE12=Beautiful
EXTD=
EXTT0=
EXTT1=
EXTT2=
EXTT3=
EXTT4=
EXTT5=
EXTT6=
EXTT7=
EXTT8=
EXTT9=
EXTT10=
EXTT11=
EXTT12=
PLAYORDER=
